<svg xmlns="http://www.w3.org/2000/svg" width="20" height="20" fill="currentColor">
    <path fill-rule="evenodd"
        d="M1.75 2.33a.75.75 0 1 0 0 1.5h2.021l.534 2.663.012.06 1.1 5.498a2.068 2.068 0 0 0 2.06 1.665h6.393a2.068 2.068 0 0 0 2.06-1.665l.002-.006 1.054-5.53a.75.75 0 0 0-.737-.89H5.661l-.54-2.692a.75.75 0 0 0-.735-.603H1.75Zm5.138 9.428L5.96 7.125h9.382l-.884 4.636a.568.568 0 0 1-.568.455H7.456a.569.569 0 0 1-.568-.457v-.001Zm.134 4.595a.091.091 0 1 0 0-.183.091.091 0 0 0 0 .182Zm-1.408-.092a1.409 1.409 0 1 1 2.817 0 1.409 1.409 0 0 1-2.817 0Zm8.658.091a.091.091 0 1 0 0-.182.091.091 0 0 0 0 .182Zm-1.409-.09a1.409 1.409 0 1 1 2.818 0 1.409 1.409 0 0 1-2.818 0Z"
        clip-rule="evenodd" />
</svg>