<svg xmlns="http://www.w3.org/2000/svg" width="20" height="20" fill="currentColor">
    <path fill-rule="evenodd"
        d="M4.2 4.5a.7.7 0 0 0-.7.7v2.875h13v-.7a.7.7 0 0 0-.7-.7H9.275a.75.75 0 0 1-.624-.334L7.424 4.5H4.2Zm12.3 5.075h-13v5.775a.7.7 0 0 0 .7.7h11.6a.7.7 0 0 0 .7-.7V9.575ZM2.644 3.645A2.2 2.2 0 0 1 4.2 3h3.625a.75.75 0 0 1 .624.334l1.227 1.841H15.8a2.2 2.2 0 0 1 2.2 2.2v7.975a2.2 2.2 0 0 1-2.2 2.2H4.2a2.2 2.2 0 0 1-2.2-2.2V5.2a2.2 2.2 0 0 1 .644-1.556Z"
        clip-rule="evenodd" />
</svg>