<svg xmlns="http://www.w3.org/2000/svg" width="18" height="18" fill="currentColor">
    <g fill-rule="evenodd" clip-rule="evenodd">
        <path
            d="M14.85 11.25h-3.6v3.6h3.6v-3.6Zm-3.6-1.35h3.6c.745 0 1.35.604 1.35 1.35v3.6a1.35 1.35 0 0 1-1.35 1.35h-3.6a1.35 1.35 0 0 1-1.35-1.35v-3.6c0-.746.604-1.35 1.35-1.35ZM6.75 3.15h-3.6v3.6h3.6v-3.6Zm8.1 0h-3.6v3.6h3.6v-3.6Zm-8.1 8.1h-3.6v3.6h3.6v-3.6Zm0-9.45h-3.6A1.35 1.35 0 0 0 1.8 3.15v3.6c0 .746.604 1.35 1.35 1.35h3.6A1.35 1.35 0 0 0 8.1 6.75v-3.6A1.35 1.35 0 0 0 6.75 1.8Zm8.1 0h-3.6A1.35 1.35 0 0 0 9.9 3.15v3.6c0 .746.604 1.35 1.35 1.35h3.6a1.35 1.35 0 0 0 1.35-1.35v-3.6a1.35 1.35 0 0 0-1.35-1.35ZM3.15 9.9h3.6c.746 0 1.35.604 1.35 1.35v3.6a1.35 1.35 0 0 1-1.35 1.35h-3.6a1.35 1.35 0 0 1-1.35-1.35v-3.6c0-.746.604-1.35 1.35-1.35Z" />
    </g>
</svg>