<svg xmlns="http://www.w3.org/2000/svg" width="18" height="18" fill="none">
    <g id="Icons/Basic/List 2">
        <g id="list" fill-rule="evenodd" clip-rule="evenodd">
            <path id="Vector (Stroke)"
                d="M1.8 4.275c0-.373.38-.675.847-.675h12.706c.468 0 .847.302.847.675 0 .373-.38.675-.847.675H2.647c-.468 0-.847-.302-.847-.675Z" />
            <path id="Vector (Stroke)_2"
                d="M1.8 8.947c0-.373.38-.675.847-.675h12.706c.468 0 .847.302.847.675 0 .373-.38.675-.847.675H2.647c-.468 0-.847-.302-.847-.675Z" />
            <path id="Vector (Stroke)_3"
                d="M1.8 13.62c0-.373.38-.676.847-.676h12.706c.468 0 .847.303.847.675 0 .373-.38.675-.847.675H2.647c-.468 0-.847-.302-.847-.675Z" />
        </g>
    </g>
</svg>