<svg xmlns="http://www.w3.org/2000/svg" width="22" height="22" fill="none"><path fill="#fff" d="M17.875 14.654c-.616-.714-1.77-1.787-1.77-5.304 0-2.67-1.74-4.81-4.084-5.334V3.3c0-.607-.457-1.1-1.021-1.1-.564 0-1.02.493-1.02 1.1v.716C7.633 4.541 5.894 6.68 5.894 9.35c0 3.517-1.153 4.59-1.77 5.304a1.12 1.12 0 0 0-.275.746c.004.564.414 1.1 1.025 1.1h12.25c.61 0 1.022-.536 1.025-1.1a1.12 1.12 0 0 0-.275-.746Zm-11.87.196c.678-.961 1.418-2.555 1.422-5.48l-.002-.02c0-2.126 1.6-3.85 3.575-3.85s3.575 1.724 3.575 3.85l-.002.02c.004 2.925.744 4.519 1.421 5.48H6.007ZM11 19.8c1.127 0 2.042-.985 2.042-2.2H8.958c0 1.215.915 2.2 2.042 2.2Z"/><path fill="#FD7972" stroke="#074E9F" d="M15.95 8.2a3.25 3.25 0 1 0 0-6.5 3.25 3.25 0 0 0 0 6.5Z"/></svg>