<svg xmlns="http://www.w3.org/2000/svg" width="16" height="16" fill="currentColor">
    <path fill-rule="evenodd"
        d="M7.665.08a.75.75 0 0 1 .67 0l7.25 3.624a.75.75 0 0 1 0 1.342L8.335 8.67a.75.75 0 0 1-.67 0L.415 5.046a.75.75 0 0 1 0-1.342L7.665.08ZM2.427 4.374 8 7.161l5.573-2.786L8 1.589 2.427 4.375ZM.08 11.29a.75.75 0 0 1 1.007-.336L8 14.412l6.915-3.458a.75.75 0 0 1 .67 1.342l-7.25 3.625a.75.75 0 0 1-.67 0l-7.25-3.625a.75.75 0 0 1-.336-1.006Zm1.007-3.96A.75.75 0 0 0 .415 8.67l7.25 3.625a.75.75 0 0 0 .67 0l7.25-3.625a.75.75 0 0 0-.67-1.342L8 10.787 1.086 7.329Z"
        clip-rule="evenodd" />
</svg>