<svg width="20" height="20" viewBox="0 0 20 20" fill="none" xmlns="http://www.w3.org/2000/svg">
<g id="Icons/Basic/Search">
<path id="search" fill-rule="evenodd" clip-rule="evenodd" d="M3.75 9C3.75 6.1005 6.1005 3.75 9 3.75C11.8995 3.75 14.25 6.1005 14.25 9C14.25 11.8995 11.8995 14.25 9 14.25C6.1005 14.25 3.75 11.8995 3.75 9ZM9 2.25C5.27208 2.25 2.25 5.27208 2.25 9C2.25 12.7279 5.27208 15.75 9 15.75C10.5938 15.75 12.0585 15.1976 13.2133 14.2739L16.7192 17.7799C17.0121 18.0728 17.487 18.0728 17.7799 17.7799C18.0728 17.487 18.0728 17.0121 17.7799 16.7192L14.2739 13.2133C15.1976 12.0585 15.75 10.5938 15.75 9C15.75 5.27208 12.7279 2.25 9 2.25Z" fill="white"/>
</g>
</svg>
