<svg width="22" height="22" viewBox="0 0 22 22" fill="currentColor" xmlns="http://www.w3.org/2000/svg">
    <path id="shopping" fill-rule="evenodd" clip-rule="evenodd"
        d="M5.55031 2.53001C5.70611 2.32227 5.95063 2.20001 6.21031 2.20001H15.781C16.0407 2.20001 16.2852 2.32227 16.441 2.53001L18.8337 5.72026C18.9408 5.86306 18.9987 6.03675 18.9987 6.21526V17.3811C18.9987 18.023 18.7437 18.6385 18.2899 19.0924C17.836 19.5463 17.2205 19.8012 16.5786 19.8012H5.41274C4.77089 19.8012 4.15532 19.5463 3.70146 19.0924C3.2476 18.6385 2.99262 18.023 2.99262 17.3811V6.24677C2.99221 6.23609 2.992 6.22537 2.992 6.21459C2.992 6.01488 3.06297 5.83174 3.18105 5.68902L5.55031 2.53001ZM4.64262 17.3811V7.03959H17.3487V17.3811C17.3487 17.5854 17.2676 17.7813 17.1232 17.9257C16.9787 18.0701 16.7829 18.1512 16.5786 18.1512H5.41274C5.20849 18.1512 5.01261 18.0701 4.86818 17.9257C4.72376 17.7813 4.64262 17.5854 4.64262 17.3811ZM15.3685 3.85001L16.5232 5.38959H5.46812L6.62281 3.85001H15.3685ZM8.62981 9.40505C8.62981 8.94942 8.26045 8.58005 7.80481 8.58005C7.34918 8.58005 6.97981 8.94942 6.97981 9.40505C6.97981 10.47 7.40285 11.4913 8.15585 12.2443C8.90886 12.9973 9.93015 13.4203 10.9951 13.4203C12.06 13.4203 13.0813 12.9973 13.8343 12.2443C14.5873 11.4913 15.0103 10.47 15.0103 9.40505C15.0103 8.94942 14.6409 8.58005 14.1853 8.58005C13.7297 8.58005 13.3603 8.94942 13.3603 9.40505C13.3603 10.0324 13.1111 10.634 12.6675 11.0775C12.224 11.5211 11.6224 11.7703 10.9951 11.7703C10.3678 11.7703 9.76615 11.5211 9.32258 11.0775C8.87901 10.634 8.62981 10.0324 8.62981 9.40505Z" />
</svg>