<svg xmlns="http://www.w3.org/2000/svg" width="20" height="20" fill="currentColor">
    <path fill-rule="evenodd"
        d="M7.875 4.167V3.5h4.25v1.4h-4.25v-.667a.777.777 0 0 0 0-.066Zm-1.5-.717h-.687c-.583 0-1.14.234-1.55.647-.41.413-.638.972-.638 1.553v10.152c0 .582.229 1.14.638 1.554.41.413.967.646 1.55.646h8.626c.582 0 1.14-.233 1.549-.646.41-.414.638-.972.638-1.554V5.65c0-.581-.229-1.14-.638-1.553a2.181 2.181 0 0 0-1.55-.647h-.688A1.472 1.472 0 0 0 12.156 2H7.843c-.809 0-1.455.653-1.468 1.45Zm7.25 1.5a1.472 1.472 0 0 1-1.469 1.45H7.843a1.472 1.472 0 0 1-1.468-1.45h-.687a.681.681 0 0 0-.484.203A.707.707 0 0 0 5 5.65v10.152c0 .188.074.367.204.498.13.13.303.202.484.202h8.626c.18 0 .354-.072.484-.202.13-.131.203-.31.203-.498V5.65a.707.707 0 0 0-.203-.497.681.681 0 0 0-.484-.203h-.689Z"
        clip-rule="evenodd" />
</svg>