<svg xmlns="http://www.w3.org/2000/svg" width="20" height="20" fill="none">
    <path fill="#3F434A" fill-rule="evenodd"
        d="M12.899 9.755a.736.736 0 0 1 .99 1.088L10 14.386l-3.892-3.543a.736.736 0 0 1 .991-1.088l2.165 1.971v-8.99a.736.736 0 1 1 1.471 0v8.99L12.9 9.755Zm-9.444 4.608a.727.727 0 0 0-1.455 0v.97A2.667 2.667 0 0 0 4.667 18h10.666A2.667 2.667 0 0 0 18 15.333v-.97a.727.727 0 0 0-1.454 0v.97c0 .67-.543 1.212-1.213 1.212H4.667c-.67 0-1.212-.543-1.212-1.212v-.97Z"
        clip-rule="evenodd" />
</svg>