<svg xmlns="http://www.w3.org/2000/svg" width="22" height="22" fill="none">
    <path fill="#fff" fill-rule="evenodd"
        d="M12.854 3.679a5.068 5.068 0 0 1 5.475 1.078c.467.461.837 1.01 1.089 1.612a4.923 4.923 0 0 1-1.089 5.414l-6.745 6.678a.83.83 0 0 1-1.168 0L3.67 11.783A4.943 4.943 0 0 1 2.2 8.27c0-1.317.529-2.58 1.47-3.513A5.05 5.05 0 0 1 7.223 3.3a5.05 5.05 0 0 1 3.552 1.457l.225.222.224-.222a5.027 5.027 0 0 1 1.63-1.078Zm4.307 2.227a3.375 3.375 0 0 0-2.384-.978 3.399 3.399 0 0 0-2.384.978l-.809.801a.83.83 0 0 1-1.168 0l-.81-.8a3.389 3.389 0 0 0-2.383-.978c-.894 0-1.751.351-2.384.977A3.326 3.326 0 0 0 3.85 8.27c0 .887.356 1.737.989 2.364l6.16 6.099 6.162-6.1a3.339 3.339 0 0 0 .989-2.363 3.313 3.313 0 0 0-.99-2.364Z"
        clip-rule="evenodd" />
</svg>