<svg xmlns="http://www.w3.org/2000/svg" width="22" height="22" fill="none">
    <path fill="#fff" fill-rule="evenodd"
        d="M5.388 6.05c.516 0 .934.37.934.825v3.3h9.344v-3.3c0-.456.419-.825.935-.825s.934.37.934.825v8.25c0 .456-.418.825-.934.825s-.935-.37-.935-.825v-3.3H6.322v3.3c0 .456-.418.825-.934.825s-.935-.37-.935-.825v-8.25c0-.456.419-.825.935-.825ZM3.134 8.163c.516 0 .935.37.935.825v4.032c0 .456-.419.825-.935.825s-.934-.37-.934-.825V8.988c0-.456.418-.825.934-.825Zm15.732 0c.516 0 .934.37.934.825v4.032c0 .456-.418.825-.934.825-.517 0-.935-.37-.935-.825V8.988c0-.456.418-.825.935-.825Z"
        clip-rule="evenodd" />
</svg>