<svg xmlns="http://www.w3.org/2000/svg" width="22" height="22" fill="none">
    <path fill="#fff" fill-rule="evenodd"
        d="M9.405 3.1c-.621 0-1.218.246-1.658.684A2.336 2.336 0 0 0 7.06 5.44v.839H4.62a2.342 2.342 0 0 0-2.345 2.339v7.944a2.342 2.342 0 0 0 2.345 2.34h12.759a2.342 2.342 0 0 0 2.345-2.34V8.617a2.342 2.342 0 0 0-2.345-2.34h-2.44V5.44c0-.621-.248-1.216-.688-1.655a2.348 2.348 0 0 0-1.657-.684h-3.19Zm4.034 3.178v-.839a.836.836 0 0 0-.246-.592.848.848 0 0 0-.599-.247h-3.19c-.224 0-.44.09-.598.247a.836.836 0 0 0-.246.592v.839h4.88Zm-4.88 1.5h4.88V17.4H8.56V7.778Zm-1.5 0H4.62a.842.842 0 0 0-.844.839v7.944c0 .461.376.84.845.84h2.44V7.778Zm7.88 9.623V7.778h2.44c.47 0 .845.378.845.839v7.944c0 .461-.376.84-.845.84h-2.44Z"
        clip-rule="evenodd" />
</svg>