<svg width="50" height="16" viewBox="0 0 50 16" fill="none" xmlns="http://www.w3.org/2000/svg">
    <g id="visa logo">
        <path id="Shape" fill-rule="evenodd" clip-rule="evenodd"
            d="M10.6471 10.8487L14.5768 0V0.00175141H18.8207L12.5144 15.952H8.27054L4.6721 2.22568C7.21438 3.55818 9.49242 6.24071 10.2191 8.70927L10.6471 10.8487ZM20.4379 0L17.9285 15.9679H21.9394L24.4472 0H20.4379ZM32.536 6.50444C31.1343 5.79666 30.2751 5.31896 30.2751 4.59506C30.2923 3.93687 31.0017 3.26256 32.5861 3.26256C33.8891 3.22909 34.8469 3.54224 35.5735 3.85381L35.9375 4.01993L36.4829 0.679042C35.6905 0.365894 34.4345 0.0208511 32.8829 0.0208511C28.922 0.0208511 26.1329 2.12667 26.1156 5.13847C26.0829 7.361 28.1124 8.59432 29.6312 9.33417C31.1828 10.0931 31.711 10.5852 31.711 11.2595C31.6939 12.2948 30.4564 12.7725 29.3017 12.7725C27.7018 12.7725 26.8424 12.5265 25.5378 11.9496L25.0095 11.7035L24.4486 15.1755C25.3909 15.6038 27.1236 15.9807 28.9221 16C33.1315 16 35.8705 13.9261 35.905 10.7163C35.9186 8.95548 34.8485 7.60686 32.536 6.50444ZM43.6623 0.0494156H46.7655L49.9997 15.9807H46.2872L45.6857 12.7996H40.9762L39.8169 15.9679H35.6075L41.5654 1.33408C41.9794 0.330671 42.7061 0.0494156 43.6623 0.0494156ZM42.1448 9.60228C42.2304 9.59424 43.7601 4.43034 43.7601 4.43034L44.982 9.60228H42.1448Z"
            fill="white" />
        <path id="Path" fill-rule="evenodd" clip-rule="evenodd"
            d="M8.89688 2.06084C8.59064 0.843292 7.614 0.0221318 6.28759 0.00460815H0.0640926L0 0.300057C4.85475 1.52391 8.92961 5.28975 10.2515 8.83199L8.89688 2.06084Z"
            fill="#FDBF5E" />
    </g>
</svg>